<mxfile host="app.diagrams.net" agent="Mozilla/5.0 (Windows NT 10.0; Win64; x64) AppleWebKit/537.36 (KHTML, like Gecko) Chrome/134.0.0.0 Safari/537.36" version="26.1.1">
  <diagram name="Strona-1" id="Lsi9cIyHuduIeKosrmVN">
    <mxGraphModel dx="1900" dy="1059" grid="0" gridSize="10" guides="1" tooltips="1" connect="1" arrows="1" fold="1" page="0" pageScale="1" pageWidth="827" pageHeight="1169" math="0" shadow="0">
      <root>
        <mxCell id="0" />
        <mxCell id="1" parent="0" />
        <mxCell id="4DhDF0X2MykEz9qFWlGF-2" value="Klient" style="shape=umlActor;verticalLabelPosition=bottom;verticalAlign=top;html=1;" vertex="1" parent="1">
          <mxGeometry x="-396" y="320" width="30" height="60" as="geometry" />
        </mxCell>
        <mxCell id="4DhDF0X2MykEz9qFWlGF-3" value="Kurier" style="shape=umlActor;verticalLabelPosition=bottom;verticalAlign=top;html=1;" vertex="1" parent="1">
          <mxGeometry x="-402" y="463" width="30" height="60" as="geometry" />
        </mxCell>
        <mxCell id="4DhDF0X2MykEz9qFWlGF-4" value="Pracownik obsługi klienta" style="shape=umlActor;verticalLabelPosition=bottom;verticalAlign=top;html=1;" vertex="1" parent="1">
          <mxGeometry x="-391" y="772" width="30" height="60" as="geometry" />
        </mxCell>
        <mxCell id="4DhDF0X2MykEz9qFWlGF-5" value="Automat przesyłkowy" style="shape=umlActor;verticalLabelPosition=bottom;verticalAlign=top;html=1;" vertex="1" parent="1">
          <mxGeometry x="-320" y="987" width="30" height="60" as="geometry" />
        </mxCell>
        <mxCell id="4DhDF0X2MykEz9qFWlGF-6" value="Operator systemu" style="shape=umlActor;verticalLabelPosition=bottom;verticalAlign=top;html=1;" vertex="1" parent="1">
          <mxGeometry x="-347" y="898" width="30" height="60" as="geometry" />
        </mxCell>
        <mxCell id="4DhDF0X2MykEz9qFWlGF-7" value="System BLIK" style="shape=umlActor;verticalLabelPosition=bottom;verticalAlign=top;html=1;" vertex="1" parent="1">
          <mxGeometry x="-417" y="574" width="30" height="60" as="geometry" />
        </mxCell>
        <mxCell id="4DhDF0X2MykEz9qFWlGF-8" value="System kart płatniczych" style="shape=umlActor;verticalLabelPosition=bottom;verticalAlign=top;html=1;" vertex="1" parent="1">
          <mxGeometry x="-399" y="659" width="30" height="60" as="geometry" />
        </mxCell>
        <mxCell id="4DhDF0X2MykEz9qFWlGF-9" value="1. Autoryzuj użytkownika" style="shape=umlBoundary;whiteSpace=wrap;html=1;" vertex="1" parent="1">
          <mxGeometry x="-102" y="216" width="100" height="80" as="geometry" />
        </mxCell>
        <mxCell id="4DhDF0X2MykEz9qFWlGF-10" value="2. Dostarcz przesyłkę" style="shape=umlBoundary;whiteSpace=wrap;html=1;" vertex="1" parent="1">
          <mxGeometry x="-102" y="312" width="100" height="80" as="geometry" />
        </mxCell>
        <mxCell id="4DhDF0X2MykEz9qFWlGF-11" value="3. Nadaj przesyłkę" style="shape=umlBoundary;whiteSpace=wrap;html=1;" vertex="1" parent="1">
          <mxGeometry x="-102" y="408" width="100" height="80" as="geometry" />
        </mxCell>
        <mxCell id="4DhDF0X2MykEz9qFWlGF-12" value="4. Odbierz przesyłkę" style="shape=umlBoundary;whiteSpace=wrap;html=1;" vertex="1" parent="1">
          <mxGeometry x="-102" y="504" width="100" height="80" as="geometry" />
        </mxCell>
        <mxCell id="4DhDF0X2MykEz9qFWlGF-13" value="5. Realizuj płatność" style="shape=umlBoundary;whiteSpace=wrap;html=1;" vertex="1" parent="1">
          <mxGeometry x="-102" y="600" width="100" height="80" as="geometry" />
        </mxCell>
        <mxCell id="4DhDF0X2MykEz9qFWlGF-14" value="6. Śledź przesyłkę" style="shape=umlBoundary;whiteSpace=wrap;html=1;" vertex="1" parent="1">
          <mxGeometry x="-102" y="696" width="100" height="80" as="geometry" />
        </mxCell>
        <mxCell id="4DhDF0X2MykEz9qFWlGF-15" value="7. Zarządzaj przesyłką" style="shape=umlBoundary;whiteSpace=wrap;html=1;" vertex="1" parent="1">
          <mxGeometry x="-102" y="792" width="100" height="80" as="geometry" />
        </mxCell>
        <mxCell id="4DhDF0X2MykEz9qFWlGF-16" value="8. Zarządzaj reklamacją" style="shape=umlBoundary;whiteSpace=wrap;html=1;" vertex="1" parent="1">
          <mxGeometry x="-102" y="888" width="100" height="80" as="geometry" />
        </mxCell>
        <mxCell id="4DhDF0X2MykEz9qFWlGF-17" value="9. Zarządzaj użytkownikami" style="shape=umlBoundary;whiteSpace=wrap;html=1;" vertex="1" parent="1">
          <mxGeometry x="-102" y="984" width="100" height="80" as="geometry" />
        </mxCell>
        <mxCell id="4DhDF0X2MykEz9qFWlGF-18" value="10. Zwróć przesyłkę" style="shape=umlBoundary;whiteSpace=wrap;html=1;" vertex="1" parent="1">
          <mxGeometry x="-102" y="1080" width="100" height="80" as="geometry" />
        </mxCell>
        <mxCell id="4DhDF0X2MykEz9qFWlGF-19" value="C1" style="ellipse;shape=umlControl;whiteSpace=wrap;html=1;" vertex="1" parent="1">
          <mxGeometry x="90" y="216" width="70" height="80" as="geometry" />
        </mxCell>
        <mxCell id="4DhDF0X2MykEz9qFWlGF-20" value="C2" style="ellipse;shape=umlControl;whiteSpace=wrap;html=1;" vertex="1" parent="1">
          <mxGeometry x="90" y="312" width="70" height="80" as="geometry" />
        </mxCell>
        <mxCell id="4DhDF0X2MykEz9qFWlGF-21" value="C3" style="ellipse;shape=umlControl;whiteSpace=wrap;html=1;" vertex="1" parent="1">
          <mxGeometry x="88" y="408" width="70" height="80" as="geometry" />
        </mxCell>
        <mxCell id="4DhDF0X2MykEz9qFWlGF-22" value="C4" style="ellipse;shape=umlControl;whiteSpace=wrap;html=1;" vertex="1" parent="1">
          <mxGeometry x="88" y="504" width="70" height="80" as="geometry" />
        </mxCell>
        <mxCell id="4DhDF0X2MykEz9qFWlGF-23" value="C5" style="ellipse;shape=umlControl;whiteSpace=wrap;html=1;" vertex="1" parent="1">
          <mxGeometry x="85" y="603" width="70" height="80" as="geometry" />
        </mxCell>
        <mxCell id="4DhDF0X2MykEz9qFWlGF-24" value="C6" style="ellipse;shape=umlControl;whiteSpace=wrap;html=1;" vertex="1" parent="1">
          <mxGeometry x="85" y="699" width="70" height="80" as="geometry" />
        </mxCell>
        <mxCell id="4DhDF0X2MykEz9qFWlGF-25" value="C7" style="ellipse;shape=umlControl;whiteSpace=wrap;html=1;" vertex="1" parent="1">
          <mxGeometry x="85" y="795" width="70" height="80" as="geometry" />
        </mxCell>
        <mxCell id="4DhDF0X2MykEz9qFWlGF-26" value="C8" style="ellipse;shape=umlControl;whiteSpace=wrap;html=1;" vertex="1" parent="1">
          <mxGeometry x="85" y="891" width="70" height="80" as="geometry" />
        </mxCell>
        <mxCell id="4DhDF0X2MykEz9qFWlGF-27" value="C9" style="ellipse;shape=umlControl;whiteSpace=wrap;html=1;" vertex="1" parent="1">
          <mxGeometry x="85" y="987" width="70" height="80" as="geometry" />
        </mxCell>
        <mxCell id="4DhDF0X2MykEz9qFWlGF-28" value="C10" style="ellipse;shape=umlControl;whiteSpace=wrap;html=1;" vertex="1" parent="1">
          <mxGeometry x="85" y="1083" width="70" height="80" as="geometry" />
        </mxCell>
        <mxCell id="4DhDF0X2MykEz9qFWlGF-29" value="Przesyłka" style="ellipse;shape=umlEntity;whiteSpace=wrap;html=1;" vertex="1" parent="1">
          <mxGeometry x="362" y="740" width="80" height="80" as="geometry" />
        </mxCell>
        <mxCell id="4DhDF0X2MykEz9qFWlGF-30" value="Reklamacja" style="ellipse;shape=umlEntity;whiteSpace=wrap;html=1;" vertex="1" parent="1">
          <mxGeometry x="362" y="888" width="80" height="80" as="geometry" />
        </mxCell>
        <mxCell id="4DhDF0X2MykEz9qFWlGF-31" value="Płatność" style="ellipse;shape=umlEntity;whiteSpace=wrap;html=1;" vertex="1" parent="1">
          <mxGeometry x="362" y="600" width="80" height="80" as="geometry" />
        </mxCell>
        <mxCell id="4DhDF0X2MykEz9qFWlGF-32" value="Użytkownik" style="ellipse;shape=umlEntity;whiteSpace=wrap;html=1;" vertex="1" parent="1">
          <mxGeometry x="362" y="411" width="80" height="80" as="geometry" />
        </mxCell>
        <mxCell id="4DhDF0X2MykEz9qFWlGF-35" value="" style="endArrow=none;html=1;rounded=0;fontSize=12;startSize=8;endSize=8;curved=1;exitX=0.5;exitY=0.5;exitDx=0;exitDy=0;exitPerimeter=0;entryX=0.02;entryY=0.488;entryDx=0;entryDy=0;entryPerimeter=0;" edge="1" parent="1" source="4DhDF0X2MykEz9qFWlGF-4" target="4DhDF0X2MykEz9qFWlGF-16">
          <mxGeometry width="50" height="50" relative="1" as="geometry">
            <mxPoint x="-137" y="780" as="sourcePoint" />
            <mxPoint x="-87" y="730" as="targetPoint" />
          </mxGeometry>
        </mxCell>
        <mxCell id="4DhDF0X2MykEz9qFWlGF-36" value="" style="endArrow=none;html=1;rounded=0;fontSize=12;startSize=8;endSize=8;curved=1;entryX=0.01;entryY=0.513;entryDx=0;entryDy=0;entryPerimeter=0;exitX=0.5;exitY=0.5;exitDx=0;exitDy=0;exitPerimeter=0;" edge="1" parent="1" source="4DhDF0X2MykEz9qFWlGF-4" target="4DhDF0X2MykEz9qFWlGF-9">
          <mxGeometry width="50" height="50" relative="1" as="geometry">
            <mxPoint x="-339" y="911" as="sourcePoint" />
            <mxPoint x="-90" y="937" as="targetPoint" />
          </mxGeometry>
        </mxCell>
        <mxCell id="4DhDF0X2MykEz9qFWlGF-37" value="" style="endArrow=none;html=1;rounded=0;fontSize=12;startSize=8;endSize=8;curved=1;exitX=0;exitY=0.5;exitDx=0;exitDy=0;entryX=1.014;entryY=0.538;entryDx=0;entryDy=0;entryPerimeter=0;" edge="1" parent="1" source="4DhDF0X2MykEz9qFWlGF-30" target="4DhDF0X2MykEz9qFWlGF-26">
          <mxGeometry width="50" height="50" relative="1" as="geometry">
            <mxPoint x="284" y="796" as="sourcePoint" />
            <mxPoint x="334" y="746" as="targetPoint" />
          </mxGeometry>
        </mxCell>
        <mxCell id="4DhDF0X2MykEz9qFWlGF-38" value="" style="endArrow=none;html=1;rounded=0;fontSize=12;startSize=8;endSize=8;curved=1;exitX=1;exitY=0.55;exitDx=0;exitDy=0;exitPerimeter=0;entryX=0.014;entryY=0.625;entryDx=0;entryDy=0;entryPerimeter=0;" edge="1" parent="1" source="4DhDF0X2MykEz9qFWlGF-16" target="4DhDF0X2MykEz9qFWlGF-26">
          <mxGeometry width="50" height="50" relative="1" as="geometry">
            <mxPoint x="-320" y="931" as="sourcePoint" />
            <mxPoint x="-80" y="947" as="targetPoint" />
          </mxGeometry>
        </mxCell>
        <mxCell id="4DhDF0X2MykEz9qFWlGF-39" value="" style="endArrow=none;html=1;rounded=0;fontSize=12;startSize=8;endSize=8;curved=1;exitX=0.99;exitY=0.5;exitDx=0;exitDy=0;exitPerimeter=0;entryX=0;entryY=0.55;entryDx=0;entryDy=0;entryPerimeter=0;" edge="1" parent="1" source="4DhDF0X2MykEz9qFWlGF-15" target="4DhDF0X2MykEz9qFWlGF-25">
          <mxGeometry width="50" height="50" relative="1" as="geometry">
            <mxPoint x="111" y="743" as="sourcePoint" />
            <mxPoint x="161" y="693" as="targetPoint" />
          </mxGeometry>
        </mxCell>
        <mxCell id="4DhDF0X2MykEz9qFWlGF-40" value="" style="endArrow=none;html=1;rounded=0;fontSize=12;startSize=8;endSize=8;curved=1;exitX=0;exitY=0.588;exitDx=0;exitDy=0;exitPerimeter=0;entryX=0.99;entryY=0.538;entryDx=0;entryDy=0;entryPerimeter=0;" edge="1" parent="1" source="4DhDF0X2MykEz9qFWlGF-27" target="4DhDF0X2MykEz9qFWlGF-17">
          <mxGeometry width="50" height="50" relative="1" as="geometry">
            <mxPoint x="158" y="925" as="sourcePoint" />
            <mxPoint x="208" y="875" as="targetPoint" />
          </mxGeometry>
        </mxCell>
        <mxCell id="4DhDF0X2MykEz9qFWlGF-41" value="" style="endArrow=none;html=1;rounded=0;fontSize=12;startSize=8;endSize=8;curved=1;exitX=-0.029;exitY=0.575;exitDx=0;exitDy=0;exitPerimeter=0;entryX=1.01;entryY=0.575;entryDx=0;entryDy=0;entryPerimeter=0;" edge="1" parent="1" source="4DhDF0X2MykEz9qFWlGF-28" target="4DhDF0X2MykEz9qFWlGF-18">
          <mxGeometry width="50" height="50" relative="1" as="geometry">
            <mxPoint x="158" y="925" as="sourcePoint" />
            <mxPoint x="208" y="875" as="targetPoint" />
          </mxGeometry>
        </mxCell>
        <mxCell id="4DhDF0X2MykEz9qFWlGF-42" value="" style="endArrow=none;html=1;rounded=0;fontSize=12;startSize=8;endSize=8;curved=1;exitX=0.029;exitY=0.588;exitDx=0;exitDy=0;exitPerimeter=0;entryX=1;entryY=0.538;entryDx=0;entryDy=0;entryPerimeter=0;" edge="1" parent="1" source="4DhDF0X2MykEz9qFWlGF-24" target="4DhDF0X2MykEz9qFWlGF-14">
          <mxGeometry width="50" height="50" relative="1" as="geometry">
            <mxPoint x="154" y="720" as="sourcePoint" />
            <mxPoint x="204" y="670" as="targetPoint" />
          </mxGeometry>
        </mxCell>
        <mxCell id="4DhDF0X2MykEz9qFWlGF-43" value="" style="endArrow=none;html=1;rounded=0;fontSize=12;startSize=8;endSize=8;curved=1;exitX=-0.014;exitY=0.588;exitDx=0;exitDy=0;exitPerimeter=0;entryX=1;entryY=0.538;entryDx=0;entryDy=0;entryPerimeter=0;" edge="1" parent="1" source="4DhDF0X2MykEz9qFWlGF-23" target="4DhDF0X2MykEz9qFWlGF-13">
          <mxGeometry width="50" height="50" relative="1" as="geometry">
            <mxPoint x="172" y="558" as="sourcePoint" />
            <mxPoint x="26" y="607" as="targetPoint" />
          </mxGeometry>
        </mxCell>
        <mxCell id="4DhDF0X2MykEz9qFWlGF-44" value="" style="endArrow=none;html=1;rounded=0;fontSize=12;startSize=8;endSize=8;curved=1;exitX=0.014;exitY=0.588;exitDx=0;exitDy=0;exitPerimeter=0;entryX=1.01;entryY=0.55;entryDx=0;entryDy=0;entryPerimeter=0;" edge="1" parent="1" source="4DhDF0X2MykEz9qFWlGF-22" target="4DhDF0X2MykEz9qFWlGF-12">
          <mxGeometry width="50" height="50" relative="1" as="geometry">
            <mxPoint x="172" y="558" as="sourcePoint" />
            <mxPoint x="222" y="508" as="targetPoint" />
          </mxGeometry>
        </mxCell>
        <mxCell id="4DhDF0X2MykEz9qFWlGF-45" value="" style="endArrow=none;html=1;rounded=0;fontSize=12;startSize=8;endSize=8;curved=1;exitX=-0.014;exitY=0.613;exitDx=0;exitDy=0;exitPerimeter=0;entryX=1;entryY=0.563;entryDx=0;entryDy=0;entryPerimeter=0;" edge="1" parent="1" source="4DhDF0X2MykEz9qFWlGF-21" target="4DhDF0X2MykEz9qFWlGF-11">
          <mxGeometry width="50" height="50" relative="1" as="geometry">
            <mxPoint x="194" y="375" as="sourcePoint" />
            <mxPoint x="244" y="325" as="targetPoint" />
          </mxGeometry>
        </mxCell>
        <mxCell id="4DhDF0X2MykEz9qFWlGF-46" value="" style="endArrow=none;html=1;rounded=0;fontSize=12;startSize=8;endSize=8;curved=1;entryX=0;entryY=0.513;entryDx=0;entryDy=0;entryPerimeter=0;" edge="1" parent="1" source="4DhDF0X2MykEz9qFWlGF-8" target="4DhDF0X2MykEz9qFWlGF-13">
          <mxGeometry width="50" height="50" relative="1" as="geometry">
            <mxPoint x="7" y="535" as="sourcePoint" />
            <mxPoint x="57" y="485" as="targetPoint" />
          </mxGeometry>
        </mxCell>
        <mxCell id="4DhDF0X2MykEz9qFWlGF-47" value="" style="endArrow=none;html=1;rounded=0;fontSize=12;startSize=8;endSize=8;curved=1;entryX=-0.03;entryY=0.5;entryDx=0;entryDy=0;entryPerimeter=0;" edge="1" parent="1" source="4DhDF0X2MykEz9qFWlGF-7" target="4DhDF0X2MykEz9qFWlGF-13">
          <mxGeometry width="50" height="50" relative="1" as="geometry">
            <mxPoint x="7" y="535" as="sourcePoint" />
            <mxPoint x="57" y="485" as="targetPoint" />
          </mxGeometry>
        </mxCell>
        <mxCell id="4DhDF0X2MykEz9qFWlGF-48" value="" style="endArrow=none;html=1;rounded=0;fontSize=12;startSize=8;endSize=8;curved=1;entryX=0;entryY=0.5;entryDx=0;entryDy=0;exitX=0.971;exitY=0.425;exitDx=0;exitDy=0;exitPerimeter=0;" edge="1" parent="1" source="4DhDF0X2MykEz9qFWlGF-23" target="4DhDF0X2MykEz9qFWlGF-31">
          <mxGeometry width="50" height="50" relative="1" as="geometry">
            <mxPoint x="7" y="535" as="sourcePoint" />
            <mxPoint x="57" y="485" as="targetPoint" />
          </mxGeometry>
        </mxCell>
        <mxCell id="4DhDF0X2MykEz9qFWlGF-49" value="" style="endArrow=none;html=1;rounded=0;fontSize=12;startSize=8;endSize=8;curved=1;entryX=0;entryY=0.5;entryDx=0;entryDy=0;entryPerimeter=0;exitX=1;exitY=0.5;exitDx=0;exitDy=0;exitPerimeter=0;" edge="1" parent="1" source="4DhDF0X2MykEz9qFWlGF-10" target="4DhDF0X2MykEz9qFWlGF-20">
          <mxGeometry width="50" height="50" relative="1" as="geometry">
            <mxPoint x="28" y="434" as="sourcePoint" />
            <mxPoint x="78" y="384" as="targetPoint" />
          </mxGeometry>
        </mxCell>
        <mxCell id="4DhDF0X2MykEz9qFWlGF-50" value="" style="endArrow=none;html=1;rounded=0;fontSize=12;startSize=8;endSize=8;curved=1;entryX=-0.014;entryY=0.6;entryDx=0;entryDy=0;entryPerimeter=0;exitX=1;exitY=0.55;exitDx=0;exitDy=0;exitPerimeter=0;" edge="1" parent="1" source="4DhDF0X2MykEz9qFWlGF-9" target="4DhDF0X2MykEz9qFWlGF-19">
          <mxGeometry width="50" height="50" relative="1" as="geometry">
            <mxPoint x="28" y="434" as="sourcePoint" />
            <mxPoint x="78" y="384" as="targetPoint" />
          </mxGeometry>
        </mxCell>
        <mxCell id="4DhDF0X2MykEz9qFWlGF-51" value="" style="endArrow=none;html=1;rounded=0;fontSize=12;startSize=8;endSize=8;curved=1;entryX=0.05;entryY=0.3;entryDx=0;entryDy=0;exitX=1;exitY=0.613;exitDx=0;exitDy=0;exitPerimeter=0;entryPerimeter=0;" edge="1" parent="1" source="4DhDF0X2MykEz9qFWlGF-24" target="4DhDF0X2MykEz9qFWlGF-29">
          <mxGeometry width="50" height="50" relative="1" as="geometry">
            <mxPoint x="137" y="816" as="sourcePoint" />
            <mxPoint x="187" y="766" as="targetPoint" />
          </mxGeometry>
        </mxCell>
        <mxCell id="4DhDF0X2MykEz9qFWlGF-52" value="" style="endArrow=none;html=1;rounded=0;fontSize=12;startSize=8;endSize=8;curved=1;entryX=0;entryY=0.5;entryDx=0;entryDy=0;exitX=0.957;exitY=0.575;exitDx=0;exitDy=0;exitPerimeter=0;" edge="1" parent="1" source="4DhDF0X2MykEz9qFWlGF-25" target="4DhDF0X2MykEz9qFWlGF-29">
          <mxGeometry width="50" height="50" relative="1" as="geometry">
            <mxPoint x="137" y="816" as="sourcePoint" />
            <mxPoint x="187" y="766" as="targetPoint" />
          </mxGeometry>
        </mxCell>
        <mxCell id="4DhDF0X2MykEz9qFWlGF-53" value="" style="endArrow=none;html=1;rounded=0;fontSize=12;startSize=8;endSize=8;curved=1;entryX=0.05;entryY=0.775;entryDx=0;entryDy=0;exitX=0.971;exitY=0.6;exitDx=0;exitDy=0;exitPerimeter=0;entryPerimeter=0;" edge="1" parent="1" source="4DhDF0X2MykEz9qFWlGF-28" target="4DhDF0X2MykEz9qFWlGF-29">
          <mxGeometry width="50" height="50" relative="1" as="geometry">
            <mxPoint x="137" y="816" as="sourcePoint" />
            <mxPoint x="187" y="766" as="targetPoint" />
          </mxGeometry>
        </mxCell>
        <mxCell id="4DhDF0X2MykEz9qFWlGF-54" value="" style="endArrow=none;html=1;rounded=0;fontSize=12;startSize=8;endSize=8;curved=1;exitX=1;exitY=0.6;exitDx=0;exitDy=0;exitPerimeter=0;entryX=0;entryY=0;entryDx=0;entryDy=0;" edge="1" parent="1" source="4DhDF0X2MykEz9qFWlGF-22" target="4DhDF0X2MykEz9qFWlGF-29">
          <mxGeometry width="50" height="50" relative="1" as="geometry">
            <mxPoint x="309" y="592" as="sourcePoint" />
            <mxPoint x="359" y="542" as="targetPoint" />
          </mxGeometry>
        </mxCell>
        <mxCell id="4DhDF0X2MykEz9qFWlGF-55" value="" style="endArrow=none;html=1;rounded=0;fontSize=12;startSize=8;endSize=8;curved=1;exitX=0.986;exitY=0.588;exitDx=0;exitDy=0;exitPerimeter=0;entryX=0.288;entryY=0.025;entryDx=0;entryDy=0;entryPerimeter=0;" edge="1" parent="1" source="4DhDF0X2MykEz9qFWlGF-20" target="4DhDF0X2MykEz9qFWlGF-29">
          <mxGeometry width="50" height="50" relative="1" as="geometry">
            <mxPoint x="258" y="482" as="sourcePoint" />
            <mxPoint x="308" y="432" as="targetPoint" />
          </mxGeometry>
        </mxCell>
        <mxCell id="4DhDF0X2MykEz9qFWlGF-56" value="" style="endArrow=none;html=1;rounded=0;fontSize=12;startSize=8;endSize=8;curved=1;entryX=1;entryY=0.6;entryDx=0;entryDy=0;entryPerimeter=0;exitX=0;exitY=0.5;exitDx=0;exitDy=0;" edge="1" parent="1" source="4DhDF0X2MykEz9qFWlGF-32" target="4DhDF0X2MykEz9qFWlGF-19">
          <mxGeometry width="50" height="50" relative="1" as="geometry">
            <mxPoint x="258" y="482" as="sourcePoint" />
            <mxPoint x="308" y="432" as="targetPoint" />
          </mxGeometry>
        </mxCell>
        <mxCell id="4DhDF0X2MykEz9qFWlGF-57" value="" style="endArrow=none;html=1;rounded=0;fontSize=12;startSize=8;endSize=8;curved=1;exitX=0.971;exitY=0.588;exitDx=0;exitDy=0;exitPerimeter=0;entryX=0.088;entryY=0.738;entryDx=0;entryDy=0;entryPerimeter=0;" edge="1" parent="1" source="4DhDF0X2MykEz9qFWlGF-27" target="4DhDF0X2MykEz9qFWlGF-32">
          <mxGeometry width="50" height="50" relative="1" as="geometry">
            <mxPoint x="258" y="782" as="sourcePoint" />
            <mxPoint x="308" y="732" as="targetPoint" />
          </mxGeometry>
        </mxCell>
        <mxCell id="4DhDF0X2MykEz9qFWlGF-58" value="" style="endArrow=none;html=1;rounded=0;fontSize=12;startSize=8;endSize=8;curved=1;entryX=0.042;entryY=0.495;entryDx=0;entryDy=0;entryPerimeter=0;" edge="1" parent="1" source="4DhDF0X2MykEz9qFWlGF-6" target="4DhDF0X2MykEz9qFWlGF-9">
          <mxGeometry width="50" height="50" relative="1" as="geometry">
            <mxPoint x="-251" y="920" as="sourcePoint" />
            <mxPoint x="-241" y="386" as="targetPoint" />
          </mxGeometry>
        </mxCell>
        <mxCell id="4DhDF0X2MykEz9qFWlGF-59" value="" style="endArrow=none;html=1;rounded=0;fontSize=12;startSize=8;endSize=8;curved=1;exitX=-0.016;exitY=0.468;exitDx=0;exitDy=0;exitPerimeter=0;" edge="1" parent="1" source="4DhDF0X2MykEz9qFWlGF-17" target="4DhDF0X2MykEz9qFWlGF-6">
          <mxGeometry width="50" height="50" relative="1" as="geometry">
            <mxPoint x="-84" y="584" as="sourcePoint" />
            <mxPoint x="-34" y="534" as="targetPoint" />
          </mxGeometry>
        </mxCell>
        <mxCell id="4DhDF0X2MykEz9qFWlGF-61" value="" style="endArrow=none;html=1;rounded=0;fontSize=12;startSize=8;endSize=8;curved=1;entryX=0.031;entryY=0.471;entryDx=0;entryDy=0;entryPerimeter=0;" edge="1" parent="1" source="4DhDF0X2MykEz9qFWlGF-5" target="4DhDF0X2MykEz9qFWlGF-15">
          <mxGeometry width="50" height="50" relative="1" as="geometry">
            <mxPoint x="-118" y="681" as="sourcePoint" />
            <mxPoint x="-68" y="631" as="targetPoint" />
          </mxGeometry>
        </mxCell>
        <mxCell id="4DhDF0X2MykEz9qFWlGF-62" value="" style="endArrow=none;html=1;rounded=0;fontSize=12;startSize=8;endSize=8;curved=1;exitX=-0.028;exitY=0.486;exitDx=0;exitDy=0;exitPerimeter=0;" edge="1" parent="1" source="4DhDF0X2MykEz9qFWlGF-10" target="4DhDF0X2MykEz9qFWlGF-3">
          <mxGeometry width="50" height="50" relative="1" as="geometry">
            <mxPoint x="-116" y="599" as="sourcePoint" />
            <mxPoint x="-66" y="549" as="targetPoint" />
          </mxGeometry>
        </mxCell>
        <mxCell id="4DhDF0X2MykEz9qFWlGF-63" value="" style="endArrow=none;html=1;rounded=0;fontSize=12;startSize=8;endSize=8;curved=1;entryX=-0.016;entryY=0.436;entryDx=0;entryDy=0;entryPerimeter=0;" edge="1" parent="1" source="4DhDF0X2MykEz9qFWlGF-3" target="4DhDF0X2MykEz9qFWlGF-9">
          <mxGeometry width="50" height="50" relative="1" as="geometry">
            <mxPoint x="-215" y="500" as="sourcePoint" />
            <mxPoint x="-165" y="450" as="targetPoint" />
          </mxGeometry>
        </mxCell>
        <mxCell id="4DhDF0X2MykEz9qFWlGF-64" value="" style="endArrow=none;html=1;rounded=0;fontSize=12;startSize=8;endSize=8;curved=1;exitX=0.007;exitY=0.501;exitDx=0;exitDy=0;exitPerimeter=0;" edge="1" parent="1" source="4DhDF0X2MykEz9qFWlGF-15" target="4DhDF0X2MykEz9qFWlGF-3">
          <mxGeometry width="50" height="50" relative="1" as="geometry">
            <mxPoint x="-215" y="500" as="sourcePoint" />
            <mxPoint x="-165" y="450" as="targetPoint" />
          </mxGeometry>
        </mxCell>
        <mxCell id="4DhDF0X2MykEz9qFWlGF-65" value="" style="endArrow=none;html=1;rounded=0;fontSize=12;startSize=8;endSize=8;curved=1;entryX=-0.005;entryY=0.485;entryDx=0;entryDy=0;entryPerimeter=0;" edge="1" parent="1" source="4DhDF0X2MykEz9qFWlGF-5" target="4DhDF0X2MykEz9qFWlGF-11">
          <mxGeometry width="50" height="50" relative="1" as="geometry">
            <mxPoint x="-162" y="751" as="sourcePoint" />
            <mxPoint x="-112" y="701" as="targetPoint" />
          </mxGeometry>
        </mxCell>
        <mxCell id="4DhDF0X2MykEz9qFWlGF-66" value="" style="endArrow=none;html=1;rounded=0;fontSize=12;startSize=8;endSize=8;curved=1;entryX=-0.016;entryY=0.491;entryDx=0;entryDy=0;entryPerimeter=0;" edge="1" parent="1" source="4DhDF0X2MykEz9qFWlGF-5" target="4DhDF0X2MykEz9qFWlGF-12">
          <mxGeometry width="50" height="50" relative="1" as="geometry">
            <mxPoint x="-162" y="751" as="sourcePoint" />
            <mxPoint x="-112" y="701" as="targetPoint" />
          </mxGeometry>
        </mxCell>
        <mxCell id="4DhDF0X2MykEz9qFWlGF-67" value="" style="endArrow=none;html=1;rounded=0;fontSize=12;startSize=8;endSize=8;curved=1;entryX=-0.016;entryY=0.468;entryDx=0;entryDy=0;entryPerimeter=0;" edge="1" parent="1" source="4DhDF0X2MykEz9qFWlGF-5" target="4DhDF0X2MykEz9qFWlGF-18">
          <mxGeometry width="50" height="50" relative="1" as="geometry">
            <mxPoint x="-162" y="751" as="sourcePoint" />
            <mxPoint x="-112" y="701" as="targetPoint" />
          </mxGeometry>
        </mxCell>
        <mxCell id="4DhDF0X2MykEz9qFWlGF-69" value="" style="endArrow=none;html=1;rounded=0;fontSize=12;startSize=8;endSize=8;curved=1;entryX=-0.016;entryY=0.515;entryDx=0;entryDy=0;entryPerimeter=0;" edge="1" parent="1" source="4DhDF0X2MykEz9qFWlGF-2" target="4DhDF0X2MykEz9qFWlGF-11">
          <mxGeometry width="50" height="50" relative="1" as="geometry">
            <mxPoint x="-182" y="557" as="sourcePoint" />
            <mxPoint x="-132" y="507" as="targetPoint" />
          </mxGeometry>
        </mxCell>
        <mxCell id="4DhDF0X2MykEz9qFWlGF-70" value="" style="endArrow=none;html=1;rounded=0;fontSize=12;startSize=8;endSize=8;curved=1;entryX=-0.016;entryY=0.476;entryDx=0;entryDy=0;entryPerimeter=0;" edge="1" parent="1" source="4DhDF0X2MykEz9qFWlGF-2" target="4DhDF0X2MykEz9qFWlGF-12">
          <mxGeometry width="50" height="50" relative="1" as="geometry">
            <mxPoint x="-182" y="557" as="sourcePoint" />
            <mxPoint x="-132" y="507" as="targetPoint" />
          </mxGeometry>
        </mxCell>
        <mxCell id="4DhDF0X2MykEz9qFWlGF-71" value="" style="endArrow=none;html=1;rounded=0;fontSize=12;startSize=8;endSize=8;curved=1;entryX=0.054;entryY=0.532;entryDx=0;entryDy=0;entryPerimeter=0;" edge="1" parent="1" source="4DhDF0X2MykEz9qFWlGF-2" target="4DhDF0X2MykEz9qFWlGF-14">
          <mxGeometry width="50" height="50" relative="1" as="geometry">
            <mxPoint x="-285" y="607" as="sourcePoint" />
            <mxPoint x="-235" y="557" as="targetPoint" />
          </mxGeometry>
        </mxCell>
        <mxCell id="4DhDF0X2MykEz9qFWlGF-73" value="" style="endArrow=none;html=1;rounded=0;fontSize=12;startSize=8;endSize=8;curved=1;entryX=0.5;entryY=0.5;entryDx=0;entryDy=0;entryPerimeter=0;exitX=0.066;exitY=0.488;exitDx=0;exitDy=0;exitPerimeter=0;" edge="1" parent="1" source="4DhDF0X2MykEz9qFWlGF-9" target="4DhDF0X2MykEz9qFWlGF-2">
          <mxGeometry width="50" height="50" relative="1" as="geometry">
            <mxPoint x="-198" y="634" as="sourcePoint" />
            <mxPoint x="-148" y="584" as="targetPoint" />
          </mxGeometry>
        </mxCell>
      </root>
    </mxGraphModel>
  </diagram>
</mxfile>
